<?xml version="1.0" encoding="utf-8"?>
<!-- Generator: Adobe Illustrator 15.0.0, SVG Export Plug-In . SVG Version: 6.00 Build 0)  -->
<!DOCTYPE svg PUBLIC "-//W3C//DTD SVG 1.1//EN" "http://www.w3.org/Graphics/SVG/1.1/DTD/svg11.dtd">
<svg version="1.1" id="图层_1" xmlns="http://www.w3.org/2000/svg" xmlns:xlink="http://www.w3.org/1999/xlink" x="0px" y="0px"
	 width="120px" height="120px" viewBox="0 0 120 120" enable-background="new 0 0 120 120" xml:space="preserve">
<path d="M86.752,38.583H33.249c-0.463,0-0.839,0.376-0.839,0.838v41.157c0,0.462,0.376,0.837,0.838,0.837h53.504
	c0.463,0,0.839-0.375,0.839-0.837V39.421C87.591,38.959,87.215,38.583,86.752,38.583z M50.924,72.713H35.209v-2h15.715V72.713z
	 M84.791,53.38H35.209v-2h49.582V53.38z"/>
<path d="M60.001,0C26.863,0,0,26.862,0,60c0,33.136,26.863,60,60.001,60C93.136,120,120,93.136,120,60C120,26.862,93.136,0,60.001,0
	z M89.591,80.578c0,1.564-1.273,2.837-2.839,2.837H33.248c-1.565,0-2.838-1.272-2.838-2.837V39.421c0-1.565,1.273-2.838,2.838-2.838
	H86.75c1.566,0,2.841,1.273,2.841,2.838V80.578z"/>
</svg>
