<?xml version="1.0" encoding="utf-8"?>
<!-- Generator: Adobe Illustrator 15.0.0, SVG Export Plug-In . SVG Version: 6.00 Build 0)  -->
<!DOCTYPE svg PUBLIC "-//W3C//DTD SVG 1.1//EN" "http://www.w3.org/Graphics/SVG/1.1/DTD/svg11.dtd">
<svg version="1.1" id="图层_1" xmlns="http://www.w3.org/2000/svg" xmlns:xlink="http://www.w3.org/1999/xlink" x="0px" y="0px"
	 width="120px" height="120px" viewBox="0 0 120 120" enable-background="new 0 0 120 120" xml:space="preserve">
<path d="M60.001,2C91.981,2,118,28.018,118,60c0,31.982-26.019,58-57.999,58C28.019,118,2,91.981,2,60C2,28.018,28.019,2,60.001,2
	 M60.001,0C26.863,0,0,26.862,0,60c0,33.136,26.863,60,60.001,60C93.136,120,120,93.136,120,60C120,26.862,93.136,0,60.001,0
	L60.001,0z"/>
<rect x="35.209" y="70.713" width="15.715" height="2"/>
<rect x="35.209" y="51.38" width="49.582" height="2"/>
<path d="M86.75,36.583H33.248c-1.565,0-2.838,1.273-2.838,2.838v41.157c0,1.564,1.273,2.837,2.838,2.837h53.504
	c1.565,0,2.839-1.272,2.839-2.837V39.421C89.591,37.856,88.316,36.583,86.75,36.583z M87.591,80.578
	c0,0.462-0.376,0.837-0.839,0.837H33.248c-0.462,0-0.838-0.375-0.838-0.837V39.421c0-0.462,0.376-0.838,0.839-0.838h53.503
	c0.463,0,0.839,0.376,0.839,0.838V80.578z"/>
</svg>
