<?xml version="1.0" encoding="utf-8"?>
<!-- Generator: Adobe Illustrator 15.0.0, SVG Export Plug-In . SVG Version: 6.00 Build 0)  -->
<!DOCTYPE svg PUBLIC "-//W3C//DTD SVG 1.1//EN" "http://www.w3.org/Graphics/SVG/1.1/DTD/svg11.dtd">
<svg version="1.1" id="图层_1" xmlns="http://www.w3.org/2000/svg" xmlns:xlink="http://www.w3.org/1999/xlink" x="0px" y="0px"
	 width="120px" height="120px" viewBox="0 0 120 120" enable-background="new 0 0 120 120" xml:space="preserve">
<path d="M74.578,40.892H38.023c-0.141,0-0.256,0.115-0.256,0.256v45.007c0,0.141,0.115,0.256,0.256,0.256h27.184l9.629-9.629V41.147
	C74.836,41.006,74.721,40.892,74.578,40.892z M66.73,67.915h-20.86v-2h20.86V67.915z M66.73,59.637h-20.86v-2h20.86V59.637z
	 M66.73,51.358h-20.86v-2h20.86V51.358z"/>
<path d="M60,0C26.863,0,0,26.862,0,59.999C0,93.137,26.863,120,60,120c33.136,0,60-26.863,60-60.001C120,26.862,93.137,0,60,0z
	 M76.836,77.609L66.035,88.41H38.023c-1.244,0-2.256-1.012-2.256-2.256V41.147c0-1.244,1.012-2.256,2.256-2.256h36.555
	c1.245,0,2.258,1.012,2.258,2.256V77.609z M84.234,78.853c0,1.244-1.012,2.256-2.256,2.256h-2.271v-2h2.271
	c0.141,0,0.256-0.115,0.256-0.256V33.845c0-0.141-0.115-0.256-0.256-0.256H45.421c-0.141,0-0.256,0.115-0.256,0.256v2.175h-2v-2.175
	c0-1.244,1.012-2.256,2.256-2.256h36.557c1.244,0,2.256,1.012,2.256,2.256V78.853z"/>
</svg>
