<?xml version="1.0" encoding="utf-8"?>
<!-- Generator: Adobe Illustrator 15.0.0, SVG Export Plug-In . SVG Version: 6.00 Build 0)  -->
<!DOCTYPE svg PUBLIC "-//W3C//DTD SVG 1.1//EN" "http://www.w3.org/Graphics/SVG/1.1/DTD/svg11.dtd">
<svg version="1.1" id="图层_1" xmlns="http://www.w3.org/2000/svg" xmlns:xlink="http://www.w3.org/1999/xlink" x="0px" y="0px"
	 width="120px" height="120px" viewBox="0 0 120 120" enable-background="new 0 0 120 120" xml:space="preserve" fill="#bababa">
<path d="M60,2c31.981,0,58,26.018,58,57.999C118,91.98,91.981,118,60,118C28.019,118,2,91.98,2,59.999C2,28.018,28.019,2,60,2 M60,0
	C26.863,0,0,26.862,0,59.999C0,93.137,26.863,120,60,120c33.136,0,60-26.863,60-60.001C120,26.862,93.137,0,60,0L60,0z"/>
<g>
	<path d="M81.979,81.108h-2.271v-2h2.271c0.141,0,0.256-0.115,0.256-0.256V33.845c0-0.141-0.115-0.256-0.256-0.256H45.421
		c-0.141,0-0.256,0.115-0.256,0.256v2.175h-2v-2.175c0-1.244,1.012-2.256,2.256-2.256h36.557c1.244,0,2.256,1.012,2.256,2.256
		v45.008C84.234,80.097,83.223,81.108,81.979,81.108z"/>
	<path d="M66.035,88.41H38.023c-1.244,0-2.256-1.012-2.256-2.256V41.147c0-1.244,1.012-2.256,2.256-2.256h36.555
		c1.245,0,2.258,1.012,2.258,2.256v36.462L66.035,88.41z M38.023,40.892c-0.141,0-0.256,0.115-0.256,0.256v45.007
		c0,0.141,0.115,0.256,0.256,0.256h27.184l9.629-9.629V41.147c0-0.141-0.115-0.256-0.258-0.256H38.023z"/>
	<rect x="45.871" y="49.358" width="20.86" height="2"/>
	<rect x="45.871" y="57.637" width="20.86" height="2"/>
	<rect x="45.871" y="65.915" width="20.86" height="2"/>
</g>
</svg>
