<?xml version="1.0" encoding="utf-8"?>
<!-- Generator: Adobe Illustrator 15.0.0, SVG Export Plug-In . SVG Version: 6.00 Build 0)  -->
<!DOCTYPE svg PUBLIC "-//W3C//DTD SVG 1.1//EN" "http://www.w3.org/Graphics/SVG/1.1/DTD/svg11.dtd">
<svg version="1.1" id="图层_1" xmlns="http://www.w3.org/2000/svg" xmlns:xlink="http://www.w3.org/1999/xlink" x="0px" y="0px"
	 width="120px" height="120px" viewBox="0 0 120 120" enable-background="new 0 0 120 120" xml:space="preserve">
<polygon points="43.658,61.652 51.433,61.652 51.433,38.719 39.362,38.719 "/>
<path d="M52.111,81.523c-1.926,0-3.493,1.566-3.493,3.492c0,1.927,1.567,3.494,3.493,3.494c1.927,0,3.494-1.567,3.494-3.494
	C55.605,83.09,54.038,81.523,52.111,81.523z"/>
<path d="M75.093,81.523c-1.927,0-3.494,1.566-3.494,3.492c0,1.927,1.567,3.494,3.494,3.494c1.926,0,3.493-1.567,3.493-3.494
	C78.586,83.09,77.019,81.523,75.093,81.523z"/>
<rect x="53.433" y="38.719" width="9.333" height="22.934"/>
<path d="M60,0C26.862,0,0,26.863,0,60s26.862,60,60,60c33.137,0,60-26.863,60-60S93.137,0,60,0z M52.111,90.51
	c-3.029,0-5.493-2.465-5.493-5.494c0-3.028,2.464-5.492,5.493-5.492c3.029,0,5.494,2.464,5.494,5.492
	C57.605,88.045,55.141,90.51,52.111,90.51z M75.093,90.51c-3.029,0-5.494-2.465-5.494-5.494c0-3.028,2.465-5.492,5.494-5.492
	s5.493,2.464,5.493,5.492C80.586,88.045,78.122,90.51,75.093,90.51z M90.944,37.999l-7.273,24.934
	c-0.124,0.427-0.516,0.72-0.96,0.72H44.032l2.042,10.902h36.637c0.553,0,1,0.447,1,1s-0.447,1-1,1H45.244
	c-0.481,0-0.895-0.343-0.983-0.815L36.723,35.49H26.016c-0.552,0-1-0.448-1-1s0.448-1,1-1h11.537c0.481,0,0.895,0.343,0.983,0.816
	l0.452,2.413h50.997c0.314,0,0.611,0.148,0.8,0.4C90.974,37.371,91.032,37.697,90.944,37.999z"/>
<rect x="64.766" y="38.719" width="9.334" height="22.934"/>
<polygon points="76.1,61.652 81.961,61.652 88.651,38.719 76.1,38.719 "/>
</svg>
