<?xml version="1.0" encoding="utf-8"?>
<!-- Generator: Adobe Illustrator 15.0.0, SVG Export Plug-In . SVG Version: 6.00 Build 0)  -->
<!DOCTYPE svg PUBLIC "-//W3C//DTD SVG 1.1//EN" "http://www.w3.org/Graphics/SVG/1.1/DTD/svg11.dtd">
<svg version="1.1" id="图层_1" xmlns="http://www.w3.org/2000/svg" xmlns:xlink="http://www.w3.org/1999/xlink" x="0px" y="0px"
	 width="120px" height="120px" viewBox="0 0 120 120" enable-background="new 0 0 120 120" xml:space="preserve">
<path d="M60,2c31.981,0,58,26.019,58,58s-26.019,58-58,58S2,91.981,2,60S28.019,2,60,2 M60,0C26.862,0,0,26.863,0,60
	s26.862,60,60,60c33.137,0,60-26.863,60-60S93.137,0,60,0L60,0z"/>
<g>
	<path d="M82.711,63.652c0.444,0,0.836-0.293,0.96-0.72l7.273-24.934c0.088-0.302,0.029-0.628-0.16-0.88
		c-0.188-0.251-0.485-0.4-0.8-0.4H38.987l-0.452-2.413c-0.088-0.473-0.501-0.816-0.983-0.816H26.016c-0.552,0-1,0.448-1,1
		s0.448,1,1,1h10.707l7.539,40.249c0.088,0.473,0.501,0.815,0.983,0.815h37.467c0.553,0,1-0.447,1-1s-0.447-1-1-1H46.074
		l-2.042-10.902H82.711z M62.766,61.652h-9.333V38.719h9.333V61.652z M64.766,38.719H74.1v22.934h-9.334V38.719z M81.961,61.652
		H76.1V38.719h12.552L81.961,61.652z M39.362,38.719h12.07v22.934h-7.775L39.362,38.719z"/>
	<path d="M52.111,79.523c-3.029,0-5.493,2.464-5.493,5.492c0,3.029,2.464,5.494,5.493,5.494c3.029,0,5.494-2.465,5.494-5.494
		C57.605,81.987,55.141,79.523,52.111,79.523z M52.111,88.51c-1.926,0-3.493-1.567-3.493-3.494c0-1.926,1.567-3.492,3.493-3.492
		c1.927,0,3.494,1.566,3.494,3.492C55.605,86.942,54.038,88.51,52.111,88.51z"/>
	<path d="M75.093,79.523c-3.029,0-5.494,2.464-5.494,5.492c0,3.029,2.465,5.494,5.494,5.494s5.493-2.465,5.493-5.494
		C80.586,81.987,78.122,79.523,75.093,79.523z M75.093,88.51c-1.927,0-3.494-1.567-3.494-3.494c0-1.926,1.567-3.492,3.494-3.492
		c1.926,0,3.493,1.566,3.493,3.492C78.586,86.942,77.019,88.51,75.093,88.51z"/>
</g>
</svg>
