<?xml version="1.0" encoding="utf-8"?>
<!-- Generator: Adobe Illustrator 15.0.0, SVG Export Plug-In . SVG Version: 6.00 Build 0)  -->
<!DOCTYPE svg PUBLIC "-//W3C//DTD SVG 1.1//EN" "http://www.w3.org/Graphics/SVG/1.1/DTD/svg11.dtd">
<svg version="1.1" id="图层_1" xmlns="http://www.w3.org/2000/svg" xmlns:xlink="http://www.w3.org/1999/xlink" x="0px" y="0px"
	 width="120px" height="120px" viewBox="0 0 120 120" enable-background="new 0 0 0 0" xml:space="preserve" fill="#ffa200">
<g>
	<g>
		<path d="M40.898,74.684c-2.913,0-5.329,2.278-5.5,5.186c-0.001,0.015-0.009,0.026-0.011,0.041
			c0.054,2.995,2.503,5.415,5.511,5.415c3.009,0,5.458-2.422,5.511-5.418c-0.001-0.014-0.009-0.024-0.01-0.038
			C46.228,76.962,43.811,74.684,40.898,74.684z"/>
	</g>
	<g>
		<path d="M79.104,74.684c-2.913,0-5.33,2.278-5.504,5.187c0,0.013-0.008,0.022-0.008,0.035c0.049,2.997,2.5,5.421,5.512,5.421
			c3.006,0,5.454-2.42,5.508-5.414c-0.002-0.015-0.01-0.027-0.011-0.043C84.432,76.961,82.016,74.684,79.104,74.684z"/>
	</g>
	<g>
		<path d="M30.451,63.274h33.598c0.738,0,1.34-0.6,1.34-1.337V36.013c0-0.737-0.602-1.338-1.34-1.338H30.451
			c-0.738,0-1.338,0.601-1.338,1.338v25.925C29.113,62.675,29.713,63.274,30.451,63.274z M34.011,44.086H60.49v2H34.011V44.086z
			 M34.011,51.862H60.49v2H34.011V51.862z"/>
	</g>
	<g>
		<path d="M60,0C26.863,0,0,26.863,0,60c0,33.138,26.863,60,60,60c33.138,0,60-26.862,60-60C120,26.863,93.138,0,60,0z
			 M27.113,36.013c0-1.841,1.498-3.338,3.338-3.338h33.598c1.842,0,3.34,1.497,3.34,3.338v25.925c0,1.84-1.498,3.337-3.34,3.337
			H30.451c-1.84,0-3.338-1.497-3.338-3.337V36.013z M96.16,80.811h-9.617c-0.491,3.672-3.637,6.516-7.439,6.516
			c-3.806,0-6.951-2.844-7.443-6.516H48.339c-0.491,3.671-3.637,6.515-7.441,6.515s-6.95-2.844-7.441-6.515h-9.621
			c-1.84,0-3.337-1.498-3.337-3.339v-5.165c0-1.841,1.497-3.338,3.337-3.338h46.095V45.688c0-1.841,1.498-3.338,3.338-3.338h19.268
			c1.82,0,3.305,1.464,3.338,3.276l3.618,31.732c0.005,0.038,0.007,0.075,0.007,0.113C99.5,79.313,98.002,80.811,96.16,80.811z"/>
	</g>
	<g>
		<path d="M93.875,45.688c0-0.737-0.6-1.338-1.338-1.338H73.27c-0.738,0-1.338,0.601-1.338,1.338v24.281c0,0.553-0.447,1-1,1H23.836
			c-0.737,0-1.337,0.601-1.337,1.338v5.165c0,0.738,0.6,1.339,1.337,1.339h9.626c0.495-3.698,3.654-6.516,7.436-6.516
			c3.784,0,6.945,2.821,7.437,6.516h23.33c0.497-3.697,3.657-6.516,7.438-6.516c3.783,0,6.943,2.821,7.434,6.516h9.623
			c0.723,0,1.313-0.574,1.338-1.29l-3.616-31.72C93.877,45.763,93.875,45.726,93.875,45.688z"/>
	</g>
</g>
</svg>
