<?xml version="1.0" encoding="utf-8"?>
<!-- Generator: Adobe Illustrator 15.0.0, SVG Export Plug-In . SVG Version: 6.00 Build 0)  -->
<!DOCTYPE svg PUBLIC "-//W3C//DTD SVG 1.1//EN" "http://www.w3.org/Graphics/SVG/1.1/DTD/svg11.dtd">
<svg version="1.1" id="图层_1" xmlns="http://www.w3.org/2000/svg" xmlns:xlink="http://www.w3.org/1999/xlink" x="0px" y="0px"
	 width="120px" height="120px" viewBox="0 0 120 120" enable-background="new 0 0 120 120" xml:space="preserve" fill="#bababa">
<g>
	<path d="M60,0C26.863,0,0,26.863,0,60c0,33.138,26.863,60,60,60c33.138,0,60-26.862,60-60C120,26.863,93.138,0,60,0z M60,118
		C28.019,118,2,91.981,2,60S28.019,2,60,2s58,26.019,58,58S91.98,118,60,118z"/>
	<rect x="34.011" y="44.086" width="26.479" height="2"/>
	<rect x="34.011" y="51.862" width="26.479" height="2"/>
	<path d="M30.451,65.274h33.598c1.842,0,3.34-1.497,3.34-3.337V36.013c0-1.841-1.498-3.338-3.34-3.338H30.451
		c-1.84,0-3.338,1.497-3.338,3.338v25.925C27.113,63.777,28.61,65.274,30.451,65.274z M29.113,36.013c0-0.737,0.6-1.338,1.338-1.338
		h33.598c0.738,0,1.34,0.601,1.34,1.338v25.925c0,0.737-0.602,1.337-1.34,1.337H30.451c-0.738,0-1.338-0.6-1.338-1.337V36.013z"/>
	<path d="M95.875,45.626c-0.033-1.813-1.518-3.276-3.338-3.276H73.27c-1.84,0-3.338,1.497-3.338,3.338v23.281H23.836
		c-1.84,0-3.337,1.497-3.337,3.338v5.165c0,1.841,1.497,3.339,3.337,3.339h9.621c0.491,3.671,3.637,6.515,7.441,6.515
		s6.95-2.844,7.441-6.515H71.66c0.492,3.672,3.638,6.516,7.443,6.516c3.803,0,6.948-2.844,7.439-6.516h9.617
		c1.842,0,3.34-1.498,3.34-3.339c0-0.038-0.002-0.075-0.007-0.113L95.875,45.626z M40.898,85.325c-3.008,0-5.457-2.42-5.511-5.415
		c0.001-0.015,0.01-0.026,0.011-0.041c0.171-2.907,2.587-5.186,5.5-5.186c2.913,0,5.33,2.278,5.501,5.186
		c0.001,0.014,0.008,0.024,0.01,0.038C46.356,82.903,43.907,85.325,40.898,85.325z M79.104,85.326c-3.012,0-5.463-2.424-5.512-5.421
		c0-0.013,0.008-0.022,0.008-0.035c0.174-2.908,2.591-5.187,5.504-5.187c2.912,0,5.328,2.277,5.497,5.186
		c0.001,0.016,0.009,0.028,0.011,0.043C84.558,82.906,82.109,85.326,79.104,85.326z M96.16,78.811h-9.623
		c-0.49-3.694-3.65-6.516-7.434-6.516c-3.781,0-6.941,2.818-7.438,6.516h-23.33c-0.492-3.694-3.653-6.516-7.437-6.516
		c-3.781,0-6.941,2.817-7.436,6.516h-9.626c-0.737,0-1.337-0.601-1.337-1.339v-5.165c0-0.737,0.6-1.338,1.337-1.338h47.095
		c0.553,0,1-0.447,1-1V45.688c0-0.737,0.6-1.338,1.338-1.338h19.268c0.738,0,1.338,0.601,1.338,1.338
		c0,0.038,0.002,0.075,0.007,0.113l3.616,31.72C97.473,78.236,96.883,78.811,96.16,78.811z"/>
</g>
</svg>
