<?xml version="1.0" encoding="utf-8"?>
<!-- Generator: Adobe Illustrator 15.0.0, SVG Export Plug-In . SVG Version: 6.00 Build 0)  -->
<!DOCTYPE svg PUBLIC "-//W3C//DTD SVG 1.1//EN" "http://www.w3.org/Graphics/SVG/1.1/DTD/svg11.dtd">
<svg version="1.1" id="图层_1" xmlns="http://www.w3.org/2000/svg" xmlns:xlink="http://www.w3.org/1999/xlink" x="0px" y="0px"
	 width="120px" height="120px" viewBox="0 0 120 120" enable-background="new 0 0 120 120" xml:space="preserve">
<g>
	<path d="M60,0C26.863,0,0,26.862,0,59.999C0,93.138,26.863,120,60,120s60-26.862,60-60.001C120,26.862,93.137,0,60,0z M60,118
		C28.019,118,2,91.98,2,59.999C2,28.019,28.019,2,60,2s58,26.019,58,57.999C118,91.98,91.981,118,60,118z"/>
	<path d="M91.236,51.007l-0.002,0.001c-0.078-0.136-0.188-0.256-0.324-0.344c-0.025-0.017-0.054-0.024-0.08-0.039l0.003-0.006
		l-4.406-2.308c1.382-6.447,2.686-14.895,0.578-16.901c-1.472-1.4-2.777-1.463-3.614-1.267c-0.859,0.201-1.563,0.738-2.121,1.357
		c-0.47-3.88-1.457-7.032-3.295-8.329c-0.939-0.661-2.547-1.19-4.881,0.05c-2.884,1.531-5.254,7.823-7.012,14.433l-0.13-0.068
		c-0.259-0.137-0.567-0.15-0.839-0.041l-11.861,4.807l0.031,0.077c-0.486-0.269-1.02-0.511-1.612-0.709
		c-3.971-1.328-7.831-0.3-10.589,2.823c-0.959,1.087-1.48,2.262-1.73,3.441l-6.373,2.582c-0.001,0.001-0.002,0.001-0.003,0.002
		l-0.024,0.01l0.002,0.004c-0.112,0.046-0.219,0.107-0.313,0.195L20.894,61.855c-0.233,0.22-0.347,0.537-0.306,0.854
		c0.041,0.317,0.231,0.597,0.512,0.75l11.227,6.145v12.708c0,0.364,0.198,0.699,0.516,0.875l25.728,14.219
		c0.043,0.023,0.089,0.036,0.134,0.053c0.029,0.012,0.057,0.026,0.086,0.034c0.086,0.024,0.175,0.038,0.264,0.038
		c0.126,0,0.25-0.032,0.37-0.08c0.014-0.006,0.03-0.004,0.043-0.01l31.315-14.219c0.356-0.162,0.586-0.518,0.586-0.91V60.664
		l4.607,2.285c0.142,0.07,0.293,0.104,0.443,0.104c0.27,0,0.535-0.108,0.729-0.314c0.303-0.32,0.359-0.801,0.14-1.184L91.236,51.007
		z M88.092,51.441l-2.667,1.211c0.173-0.699,0.359-1.478,0.553-2.318L88.092,51.441z M81.557,34.862
		c0.291-0.798,1.234-2.524,2.289-2.771c0.52-0.117,1.118,0.138,1.78,0.769c1.429,1.36-0.192,11.783-2.534,20.852l-2.654,1.206
		c0.51-3.907,1.48-12.637,1.113-20.057L81.557,34.862z M74.031,24.987c1.736-0.923,2.529-0.364,2.791-0.181
		c3.92,2.765,2.998,20.296,1.465,31.087l-6.895,3.13c-0.972-1.151-3.28-3.459-6.71-4.423C66.322,43.581,70.066,27.094,74.031,24.987
		z M59.099,64.605l-6.452-3.565c0.677-1.241,2.5-3.711,6.625-4.629c5.148-1.142,8.724,1.862,10.218,3.476L59.099,64.605z
		 M58.647,47.06c2.104-1.065,4.21-0.707,5.377-0.354c-0.648,3.32-1.092,6.089-1.308,7.521c-1.193-0.121-2.483-0.079-3.879,0.23
		c-1.433,0.319-2.624,0.805-3.631,1.365C55.019,53.428,55.154,48.831,58.647,47.06z M65.435,39.572l0.139,0.072
		c-0.427,1.732-0.812,3.454-1.151,5.09c-1.529-0.438-4.068-0.783-6.68,0.542c-0.34,0.173-0.646,0.369-0.94,0.574
		c-0.381-0.638-0.928-1.384-1.691-2.095L65.435,39.572z M42.582,45.867c2.201-2.493,5.283-3.313,8.456-2.251
		c2.491,0.834,3.732,2.606,4.268,3.641c-2.637,3.244-2.226,8.136-1.974,9.855c-1.243,1.058-2,2.168-2.432,2.961l-7.694-4.252
		C42.56,54.819,39.395,49.477,42.582,45.867z M40.086,54.098l-4.44-2.453l3.541-1.436C39.263,51.629,39.638,52.973,40.086,54.098z
		 M33.482,52.733l24.083,13.311l-8.014,10.708l-15.744-8.617l-10.54-5.769L33.482,52.733z M34.327,70.699l15.025,8.224
		c0.098,0.054,0.202,0.083,0.307,0.102c0.027,0.005,0.053,0.008,0.081,0.01c0.031,0.003,0.062,0.012,0.092,0.012
		c0.027,0,0.05-0.016,0.077-0.018c0.099-0.008,0.192-0.03,0.285-0.066c0.04-0.016,0.078-0.026,0.115-0.047
		c0.123-0.067,0.236-0.151,0.325-0.27l7.422-9.916v26.106L34.327,81.723V70.699z M89.369,81.668L60.055,94.979v-28.61l29.314-13.311
		V81.668z M91.369,58.432v-3.174l2.545,4.437L91.369,58.432z"/>
</g>
</svg>
