<?xml version="1.0" encoding="utf-8"?>
<!-- Generator: Adobe Illustrator 15.0.0, SVG Export Plug-In . SVG Version: 6.00 Build 0)  -->
<!DOCTYPE svg PUBLIC "-//W3C//DTD SVG 1.1//EN" "http://www.w3.org/Graphics/SVG/1.1/DTD/svg11.dtd">
<svg version="1.1" id="图层_1" xmlns="http://www.w3.org/2000/svg" xmlns:xlink="http://www.w3.org/1999/xlink" x="0px" y="0px"
	 width="120px" height="120px" viewBox="0 0 120 120" enable-background="new 0 0 0 0" xml:space="preserve" fill="#65c178">
<path d="M55.207,55.823c1.007-0.561,2.198-1.046,3.631-1.365c1.396-0.31,2.686-0.352,3.879-0.23
	c0.216-1.433,0.659-4.201,1.308-7.521c-1.167-0.354-3.273-0.712-5.377,0.354C55.154,48.831,55.019,53.428,55.207,55.823z"/>
<path d="M39.187,50.209l-3.541,1.436l4.44,2.453C39.638,52.973,39.263,51.629,39.187,50.209z"/>
<path d="M50.898,60.073c0.433-0.793,1.189-1.903,2.432-2.961c-0.251-1.72-0.663-6.611,1.974-9.855
	c-0.536-1.034-1.776-2.807-4.268-3.641c-3.172-1.063-6.255-0.242-8.456,2.251c-3.187,3.609-0.021,8.952,0.623,9.954L50.898,60.073z"
	/>
<path d="M57.742,45.276c2.611-1.325,5.15-0.98,6.68-0.542c0.34-1.636,0.725-3.357,1.151-5.09l-0.139-0.072l-10.323,4.184
	c0.763,0.711,1.31,1.457,1.691,2.095C57.096,45.646,57.402,45.449,57.742,45.276z"/>
<path d="M85.425,52.652l2.667-1.211l-2.114-1.107C85.784,51.175,85.598,51.953,85.425,52.652z"/>
<path d="M71.393,59.023l6.895-3.13c1.533-10.791,2.455-28.322-1.465-31.087c-0.262-0.184-1.055-0.742-2.791,0.181
	c-3.965,2.106-7.709,18.594-9.349,29.613C68.112,55.564,70.421,57.872,71.393,59.023z"/>
<path d="M85.626,32.859c-0.662-0.631-1.261-0.886-1.78-0.769c-1.055,0.247-1.998,1.974-2.289,2.771l-0.006-0.002
	c0.367,7.42-0.604,16.149-1.113,20.057l2.654-1.206C85.434,44.643,87.055,34.22,85.626,32.859z"/>
<polygon points="57.565,66.044 33.482,52.733 23.267,62.366 33.807,68.135 49.551,76.752 "/>
<polygon points="91.369,58.432 93.914,59.694 91.369,55.258 "/>
<path d="M50.308,78.915c-0.038,0.021-0.076,0.031-0.115,0.047c-0.092,0.036-0.186,0.059-0.285,0.066
	c-0.026,0.002-0.05,0.018-0.077,0.018c-0.031,0-0.062-0.009-0.092-0.012c-0.027-0.002-0.053-0.005-0.081-0.01
	c-0.105-0.019-0.209-0.048-0.307-0.102l-15.025-8.224v11.023l23.728,13.113V68.729l-7.422,9.916
	C50.544,78.764,50.431,78.848,50.308,78.915z"/>
<polygon points="60.055,94.979 89.369,81.668 89.369,53.058 60.055,66.368 "/>
<path d="M60,0C26.863,0,0,26.862,0,59.999C0,93.138,26.863,120,60,120s60-26.862,60-60.001C120,26.862,93.137,0,60,0z
	 M97.148,62.739c-0.193,0.206-0.459,0.314-0.729,0.314c-0.15,0-0.302-0.034-0.443-0.104l-4.607-2.285v21.648
	c0,0.393-0.229,0.748-0.586,0.91L59.468,97.441c-0.014,0.006-0.029,0.004-0.043,0.01c-0.12,0.048-0.244,0.08-0.37,0.08
	c-0.089,0-0.177-0.014-0.264-0.038c-0.03-0.008-0.057-0.022-0.086-0.034c-0.045-0.017-0.091-0.029-0.134-0.053L32.843,83.188
	c-0.318-0.176-0.516-0.511-0.516-0.875V69.604L21.1,63.46c-0.281-0.153-0.471-0.433-0.512-0.75
	c-0.041-0.317,0.073-0.635,0.306-0.854l11.747-11.078c0.093-0.088,0.201-0.149,0.313-0.195l-0.002-0.004l0.024-0.01
	c0.001-0.001,0.002-0.001,0.003-0.002l6.373-2.582c0.25-1.18,0.771-2.354,1.73-3.441c2.759-3.123,6.619-4.151,10.589-2.823
	c0.592,0.198,1.126,0.44,1.612,0.709l-0.031-0.077l11.861-4.807c0.271-0.109,0.58-0.096,0.839,0.041l0.13,0.068
	c1.758-6.609,4.128-12.901,7.012-14.433c2.334-1.24,3.941-0.711,4.881-0.05c1.838,1.297,2.825,4.449,3.295,8.329
	c0.559-0.619,1.262-1.156,2.121-1.357c0.837-0.196,2.143-0.134,3.614,1.267c2.107,2.007,0.804,10.454-0.578,16.901l4.406,2.308
	l-0.003,0.006c0.026,0.015,0.055,0.022,0.08,0.039c0.137,0.088,0.246,0.208,0.324,0.344l0.002-0.001l6.052,10.549
	C97.508,61.938,97.451,62.419,97.148,62.739z"/>
<path d="M59.272,56.411c-4.125,0.918-5.949,3.388-6.625,4.629l6.452,3.565l10.392-4.719C67.996,58.273,64.42,55.27,59.272,56.411z"
	/>
</svg>
